<svg width="362" height="362" fill="none" xmlns="http://www.w3.org/2000/svg"><circle cx="181" cy="181" r="181" fill="#000"/><path d="m123.477 117.724-60.333-11.111c-9.54-1.757-18.337 5.567-18.337 15.268v118.241c0 9.7 8.797 17.025 18.337 15.268l60.333-11.111a15.525 15.525 0 0 0 12.713-15.268v-96.019c0-7.49-5.347-13.911-12.713-15.268Z" fill="#fff" stroke="#000" stroke-width="18.983"/><path d="M160.648 98.33 100.315 83.18c-9.803-2.462-19.306 4.95-19.306 15.057v165.528c0 10.107 9.503 17.519 19.306 15.057l60.333-15.152a15.524 15.524 0 0 0 11.743-15.057V113.388c0-7.118-4.84-13.324-11.743-15.058Z" fill="#fff" stroke="#000" stroke-width="18.983"/><path d="m228.2 86.556-78.433-26.493c-10.064-3.4-20.493 4.086-20.493 14.708v212.455c0 10.622 10.429 18.108 20.493 14.708l78.433-26.493a15.524 15.524 0 0 0 10.557-14.708V101.264c0-6.66-4.247-12.577-10.557-14.708Z" fill="#fff" stroke="#000" stroke-width="18.983"/><path d="m302.765 82.03-84.466-43.674c-10.334-5.343-22.656 2.157-22.656 13.79v257.71c0 11.633 12.322 19.133 22.656 13.791l84.466-43.674a15.526 15.526 0 0 0 8.395-13.791V95.82a15.526 15.526 0 0 0-8.395-13.79Z" fill="#fff" stroke="#000" stroke-width="18.983"/></svg>