<svg width="60" height="60" viewBox="0 0 60 60" fill="none" xmlns="http://www.w3.org/2000/svg">
<rect x="1" y="1" width="58" height="58" rx="29" fill="url(#paint0_linear_4444_6899)"/>
<g clip-path="url(#clip0_4444_6899)">
<path d="M20.2922 23.2416H12V21.2232H13.0097V16.0184H12V14H20.2922V17.0808H18.2193V16.0184H15.668V17.5588H18.06V19.5772H15.668V21.2239H18.2193V20.1615H20.2922V23.2416ZM25.6303 23.2416H21.059V21.2232H22.175V16.0184H21.059V14H25.7366V16.0184H24.8334V17.6116H25.7902C27.0126 17.6116 27.7567 17.0273 27.7567 16.0184H26.9591V14H31.3711V16.0184H30.2544C30.2544 17.3997 29.2976 18.5677 28.3408 19.0992C28.6064 20.5333 29.4267 21.2239 31.234 21.1176L33.254 16.0191H32.5628V14H37.7718L40.5358 21.2232H41.4926V23.2416H36.815V21.2232H37.559L37.3462 20.5326H34.263L34.0502 21.2232H34.9007V23.2416H33.0646C29.875 23.2416 29.4575 23.2416 28.2879 22.7636C27.1719 22.2856 26.3214 21.1169 25.8959 19.63H24.8327V21.2232H25.6303V23.2416ZM34.9555 18.5142H36.6035L35.7531 16.2832L34.9555 18.5142ZM25.6543 34.1193H21.059V32.0741H22.1456V26.8566H21.059V24.8944H26.7109C29.1825 24.8944 30.4291 26.2429 30.4291 27.9571C30.4291 28.9586 29.8857 30.0704 28.7576 30.6969C28.9242 31.6984 29.7947 32.0748 30.8733 32.0748H32.5996V26.8566H31.137V24.8944H36.6932V26.8566H35.2305V32.0741H36.6932V34.1193H30.7583C28.0678 34.1193 26.7932 33.0756 26.1676 31.1134H24.8601V32.0735H25.6537V34.1193H25.6543ZM24.8601 29.1104H26.1053C26.939 29.1104 27.6255 28.8162 27.6255 27.9831C27.6255 27.1006 26.939 26.8559 26.1053 26.8559H24.8601V29.1104ZM20.2922 31.0559H18.2193V32.1182H15.668V30.4716H18.06V28.4531H15.668V26.9128H18.2193V27.9751H20.2922V24.8944H12V26.9128H13.0097V32.1176H12V34.136H20.2922V31.0559ZM39.9591 14V17.0273H41.9256V16.0184H43.0416V21.2232H42.0848V23.2416H46.7625V21.2232H45.7528V16.0184H46.8689V17.0273H48.8889V14L39.9591 14ZM44.0406 26.8566H45.1653V30.1908L41.4438 24.8944H37.472V26.8559H38.5613V32.0735H37.472V34.1186H42.2762V32.0735H41.1936V28.8643L44.8315 34.1186H47.7976V26.8566H48.8039V24.895H44.0412V26.8566H44.0406ZM20.5217 42.217C20.5217 43.5943 19.5153 44.9722 17.5596 44.9722H12V42.9685H12.9608V37.751H12V35.7058H16.9065C18.7994 35.7058 19.7281 36.9159 19.7281 38.2103C19.7281 38.7946 19.5194 39.3789 19.0175 39.9218C20.1042 40.4226 20.5217 41.2991 20.5217 42.217ZM15.676 39.3368H16.3866C16.9714 39.3368 17.2638 38.9611 17.2638 38.5439C17.2638 38.1267 16.9714 37.751 16.3866 37.751H15.676V39.3368ZM17.8901 42.092C17.8901 41.6327 17.5141 41.1734 16.9293 41.1734H15.676V42.9685H16.8878C17.5141 42.9685 17.8901 42.5092 17.8901 42.092ZM44.3022 39.6069H48.7611V43.0601C48.1341 44.2287 46.7143 45.1393 44.5839 45.1393C43.3307 45.1393 42.3284 44.805 41.7857 44.3885C39.7731 45.6113 36.2609 45.3573 35.0177 41.967H33.8221V42.9685H34.6424V44.9722H30.047V42.9685H31.1905V37.751H29.5452V41.2155C29.5452 43.8029 27.7072 45.2222 25.3258 45.2222C23.2376 45.2222 21.1071 43.9707 21.1071 41.2155V37.751H20.2299V35.7058H24.909V37.751H23.906V41.3412C23.906 42.3841 24.7002 42.9685 25.4516 42.9685C26.2037 42.9685 26.9136 42.4263 26.9136 41.3412V37.751H25.7019V35.7058H35.5604C38.0321 35.7058 39.2786 37.0536 39.2786 38.7685C39.2786 39.7747 38.7306 40.8919 37.5918 41.5163C38.0655 42.9043 39.5054 43.1777 40.1973 42.5098C39.8634 41.8419 39.7376 41.0905 39.7376 40.339C39.7376 37.8626 41.2779 35.5393 44.4574 35.5393C46.2941 35.5393 47.4015 36.0621 48.284 36.7989V38.9637H45.9448L45.9348 37.9983C45.5742 37.775 45.1533 37.6721 44.6247 37.6721C43.2403 37.6721 42.41 38.6562 42.41 40.2982C42.41 41.8005 43.2878 42.9197 44.6247 42.9611C45.3353 42.9611 45.882 42.8094 46.4206 42.3434V41.5698H44.3009V39.6069H44.3022ZM36.5553 38.8782C36.5553 37.9956 35.8688 37.751 35.0351 37.751H33.8214V40.0054H35.0351C35.8688 40.0054 36.5553 39.7105 36.5553 38.8782Z" fill="white"/>
</g>
<g clip-path="url(#clip1_4444_6899)">
<path d="M20.2922 23.2416H12V21.2232H13.0097V16.0184H12V14H20.2922V17.0808H18.2193V16.0184H15.668V17.5588H18.06V19.5772H15.668V21.2239H18.2193V20.1615H20.2922V23.2416ZM25.6303 23.2416H21.059V21.2232H22.175V16.0184H21.059V14H25.7366V16.0184H24.8334V17.6116H25.7902C27.0126 17.6116 27.7567 17.0273 27.7567 16.0184H26.9591V14H31.3711V16.0184H30.2544C30.2544 17.3997 29.2976 18.5677 28.3408 19.0992C28.6064 20.5333 29.4267 21.2239 31.234 21.1176L33.254 16.0191H32.5628V14H37.7718L40.5358 21.2232H41.4926V23.2416H36.815V21.2232H37.559L37.3462 20.5326H34.263L34.0502 21.2232H34.9007V23.2416H33.0646C29.875 23.2416 29.4575 23.2416 28.2879 22.7636C27.1719 22.2856 26.3214 21.1169 25.8959 19.63H24.8327V21.2232H25.6303V23.2416ZM34.9555 18.5142H36.6035L35.7531 16.2832L34.9555 18.5142ZM25.6543 34.1193H21.059V32.0741H22.1456V26.8566H21.059V24.8944H26.7109C29.1825 24.8944 30.4291 26.2429 30.4291 27.9571C30.4291 28.9586 29.8857 30.0704 28.7576 30.6969C28.9242 31.6984 29.7947 32.0748 30.8733 32.0748H32.5996V26.8566H31.137V24.8944H36.6932V26.8566H35.2305V32.0741H36.6932V34.1193H30.7583C28.0678 34.1193 26.7932 33.0756 26.1676 31.1134H24.8601V32.0735H25.6537V34.1193H25.6543ZM24.8601 29.1104H26.1053C26.939 29.1104 27.6255 28.8162 27.6255 27.9831C27.6255 27.1006 26.939 26.8559 26.1053 26.8559H24.8601V29.1104ZM20.2922 31.0559H18.2193V32.1182H15.668V30.4716H18.06V28.4531H15.668V26.9128H18.2193V27.9751H20.2922V24.8944H12V26.9128H13.0097V32.1176H12V34.136H20.2922V31.0559ZM39.9591 14V17.0273H41.9256V16.0184H43.0416V21.2232H42.0848V23.2416H46.7625V21.2232H45.7528V16.0184H46.8689V17.0273H48.8889V14L39.9591 14ZM44.0406 26.8566H45.1653V30.1908L41.4438 24.8944H37.472V26.8559H38.5613V32.0735H37.472V34.1186H42.2762V32.0735H41.1936V28.8643L44.8315 34.1186H47.7976V26.8566H48.8039V24.895H44.0412V26.8566H44.0406ZM20.5217 42.217C20.5217 43.5943 19.5153 44.9722 17.5596 44.9722H12V42.9685H12.9608V37.751H12V35.7058H16.9065C18.7994 35.7058 19.7281 36.9159 19.7281 38.2103C19.7281 38.7946 19.5194 39.3789 19.0175 39.9218C20.1042 40.4226 20.5217 41.2991 20.5217 42.217ZM15.676 39.3368H16.3866C16.9714 39.3368 17.2638 38.9611 17.2638 38.5439C17.2638 38.1267 16.9714 37.751 16.3866 37.751H15.676V39.3368ZM17.8901 42.092C17.8901 41.6327 17.5141 41.1734 16.9293 41.1734H15.676V42.9685H16.8878C17.5141 42.9685 17.8901 42.5092 17.8901 42.092ZM44.3022 39.6069H48.7611V43.0601C48.1341 44.2287 46.7143 45.1393 44.5839 45.1393C43.3307 45.1393 42.3284 44.805 41.7857 44.3885C39.7731 45.6113 36.2609 45.3573 35.0177 41.967H33.8221V42.9685H34.6424V44.9722H30.047V42.9685H31.1905V37.751H29.5452V41.2155C29.5452 43.8029 27.7072 45.2222 25.3258 45.2222C23.2376 45.2222 21.1071 43.9707 21.1071 41.2155V37.751H20.2299V35.7058H24.909V37.751H23.906V41.3412C23.906 42.3841 24.7002 42.9685 25.4516 42.9685C26.2037 42.9685 26.9136 42.4263 26.9136 41.3412V37.751H25.7019V35.7058H35.5604C38.0321 35.7058 39.2786 37.0536 39.2786 38.7685C39.2786 39.7747 38.7306 40.8919 37.5918 41.5163C38.0655 42.9043 39.5054 43.1777 40.1973 42.5098C39.8634 41.8419 39.7376 41.0905 39.7376 40.339C39.7376 37.8626 41.2779 35.5393 44.4574 35.5393C46.2941 35.5393 47.4015 36.0621 48.284 36.7989V38.9637H45.9448L45.9348 37.9983C45.5742 37.775 45.1533 37.6721 44.6247 37.6721C43.2403 37.6721 42.41 38.6562 42.41 40.2982C42.41 41.8005 43.2878 42.9197 44.6247 42.9611C45.3353 42.9611 45.882 42.8094 46.4206 42.3434V41.5698H44.3009V39.6069H44.3022ZM36.5553 38.8782C36.5553 37.9956 35.8688 37.751 35.0351 37.751H33.8214V40.0054H35.0351C35.8688 40.0054 36.5553 39.7105 36.5553 38.8782Z" fill="white"/>
</g>
<g clip-path="url(#clip2_4444_6899)">
<path d="M20.2922 23.2416H12V21.2232H13.0097V16.0184H12V14H20.2922V17.0808H18.2193V16.0184H15.668V17.5588H18.06V19.5772H15.668V21.2239H18.2193V20.1615H20.2922V23.2416ZM25.6303 23.2416H21.059V21.2232H22.175V16.0184H21.059V14H25.7366V16.0184H24.8334V17.6116H25.7902C27.0126 17.6116 27.7567 17.0273 27.7567 16.0184H26.9591V14H31.3711V16.0184H30.2544C30.2544 17.3997 29.2976 18.5677 28.3408 19.0992C28.6064 20.5333 29.4267 21.2239 31.234 21.1176L33.254 16.0191H32.5628V14H37.7718L40.5358 21.2232H41.4926V23.2416H36.815V21.2232H37.559L37.3462 20.5326H34.263L34.0502 21.2232H34.9007V23.2416H33.0646C29.875 23.2416 29.4575 23.2416 28.2879 22.7636C27.1719 22.2856 26.3214 21.1169 25.8959 19.63H24.8327V21.2232H25.6303V23.2416ZM34.9555 18.5142H36.6035L35.7531 16.2832L34.9555 18.5142ZM25.6543 34.1193H21.059V32.0741H22.1456V26.8566H21.059V24.8944H26.7109C29.1825 24.8944 30.4291 26.2429 30.4291 27.9571C30.4291 28.9586 29.8857 30.0704 28.7576 30.6969C28.9242 31.6984 29.7947 32.0748 30.8733 32.0748H32.5996V26.8566H31.137V24.8944H36.6932V26.8566H35.2305V32.0741H36.6932V34.1193H30.7583C28.0678 34.1193 26.7932 33.0756 26.1676 31.1134H24.8601V32.0735H25.6537V34.1193H25.6543ZM24.8601 29.1104H26.1053C26.939 29.1104 27.6255 28.8162 27.6255 27.9831C27.6255 27.1006 26.939 26.8559 26.1053 26.8559H24.8601V29.1104ZM20.2922 31.0559H18.2193V32.1182H15.668V30.4716H18.06V28.4531H15.668V26.9128H18.2193V27.9751H20.2922V24.8944H12V26.9128H13.0097V32.1176H12V34.136H20.2922V31.0559ZM39.9591 14V17.0273H41.9256V16.0184H43.0416V21.2232H42.0848V23.2416H46.7625V21.2232H45.7528V16.0184H46.8689V17.0273H48.8889V14L39.9591 14ZM44.0406 26.8566H45.1653V30.1908L41.4438 24.8944H37.472V26.8559H38.5613V32.0735H37.472V34.1186H42.2762V32.0735H41.1936V28.8643L44.8315 34.1186H47.7976V26.8566H48.8039V24.895H44.0412V26.8566H44.0406ZM20.5217 42.217C20.5217 43.5943 19.5153 44.9722 17.5596 44.9722H12V42.9685H12.9608V37.751H12V35.7058H16.9065C18.7994 35.7058 19.7281 36.9159 19.7281 38.2103C19.7281 38.7946 19.5194 39.3789 19.0175 39.9218C20.1042 40.4226 20.5217 41.2991 20.5217 42.217ZM15.676 39.3368H16.3866C16.9714 39.3368 17.2638 38.9611 17.2638 38.5439C17.2638 38.1267 16.9714 37.751 16.3866 37.751H15.676V39.3368ZM17.8901 42.092C17.8901 41.6327 17.5141 41.1734 16.9293 41.1734H15.676V42.9685H16.8878C17.5141 42.9685 17.8901 42.5092 17.8901 42.092ZM44.3022 39.6069H48.7611V43.0601C48.1341 44.2287 46.7143 45.1393 44.5839 45.1393C43.3307 45.1393 42.3284 44.805 41.7857 44.3885C39.7731 45.6113 36.2609 45.3573 35.0177 41.967H33.8221V42.9685H34.6424V44.9722H30.047V42.9685H31.1905V37.751H29.5452V41.2155C29.5452 43.8029 27.7072 45.2222 25.3258 45.2222C23.2376 45.2222 21.1071 43.9707 21.1071 41.2155V37.751H20.2299V35.7058H24.909V37.751H23.906V41.3412C23.906 42.3841 24.7002 42.9685 25.4516 42.9685C26.2037 42.9685 26.9136 42.4263 26.9136 41.3412V37.751H25.7019V35.7058H35.5604C38.0321 35.7058 39.2786 37.0536 39.2786 38.7685C39.2786 39.7747 38.7306 40.8919 37.5918 41.5163C38.0655 42.9043 39.5054 43.1777 40.1973 42.5098C39.8634 41.8419 39.7376 41.0905 39.7376 40.339C39.7376 37.8626 41.2779 35.5393 44.4574 35.5393C46.2941 35.5393 47.4015 36.0621 48.284 36.7989V38.9637H45.9448L45.9348 37.9983C45.5742 37.775 45.1533 37.6721 44.6247 37.6721C43.2403 37.6721 42.41 38.6562 42.41 40.2982C42.41 41.8005 43.2878 42.9197 44.6247 42.9611C45.3353 42.9611 45.882 42.8094 46.4206 42.3434V41.5698H44.3009V39.6069H44.3022ZM36.5553 38.8782C36.5553 37.9956 35.8688 37.751 35.0351 37.751H33.8214V40.0054H35.0351C35.8688 40.0054 36.5553 39.7105 36.5553 38.8782Z" fill="white"/>
</g>
<rect x="1" y="1" width="58" height="58" rx="29" stroke="url(#paint1_linear_4444_6899)" stroke-width="2"/>
<defs>
<linearGradient id="paint0_linear_4444_6899" x1="30" y1="0" x2="30" y2="60" gradientUnits="userSpaceOnUse">
<stop offset="0.0624916" stop-color="#FFD400"/>
<stop offset="0.501736" stop-color="#00B400"/>
<stop offset="0.949661" stop-color="#00B4FF"/>
</linearGradient>
<linearGradient id="paint1_linear_4444_6899" x1="30" y1="0" x2="30" y2="60" gradientUnits="userSpaceOnUse">
<stop offset="0.0624916" stop-color="#FFD400"/>
<stop offset="0.501736" stop-color="#00B400"/>
<stop offset="0.949661" stop-color="#00B4FF"/>
</linearGradient>
<clipPath id="clip0_4444_6899">
<rect width="38" height="11" fill="white" transform="translate(11 13)"/>
</clipPath>
<clipPath id="clip1_4444_6899">
<rect width="38" height="11" fill="white" transform="translate(11 24)"/>
</clipPath>
<clipPath id="clip2_4444_6899">
<rect width="38" height="11" fill="white" transform="translate(11 35)"/>
</clipPath>
</defs>
</svg>
