<svg width="60" height="60" viewBox="0 0 60 60" fill="none" xmlns="http://www.w3.org/2000/svg">
<g clip-path="url(#clip0_5630_11679)">
<rect width="60" height="60" rx="30" fill="black"/>
<circle cx="45.8995" cy="44.8994" r="7" transform="rotate(-45 45.8995 44.8994)" fill="#00B4FF"/>
<circle cx="44.5987" cy="14.8994" r="7" transform="rotate(-45 44.5987 14.8994)" fill="#00B400"/>
<circle cx="28" cy="50" r="5" fill="#00B400"/>
<circle cx="6.5" cy="30.5" r="7.5" transform="rotate(90 6.5 30.5)" fill="#FFC800"/>
<circle cx="30" cy="10" r="5" fill="#FFC800"/>
<circle cx="17.6562" cy="57.6569" r="4" transform="rotate(45 17.6562 57.6569)" fill="#00B4FF"/>
<circle cx="20.6562" cy="1.65685" r="4" transform="rotate(45 20.6562 1.65685)" fill="#00B4FF"/>
<path d="M24.4958 27.0105H20V25.9162H20.5474V23.0943H20V22H24.4958V23.6703H23.3719V23.0943H21.9887V23.9295H23.2856V25.0238H21.9887V25.9166H23.3719V25.3406H24.4958V27.0105ZM27.3899 27.0105H24.9115V25.9162H25.5166V23.0943H24.9115V22H27.4476V23.0943H26.9578V23.9581H27.4766C28.1394 23.9581 28.5428 23.6413 28.5428 23.0943H28.1104V22H30.5024V23.0943H29.897C29.897 23.8432 29.3782 24.4764 28.8595 24.7646C29.0035 25.5421 29.4482 25.9166 30.4281 25.8589L31.5233 23.0947H31.1485V22H33.9726L35.4712 25.9162H35.99V27.0105H33.4539V25.9162H33.8573L33.7419 25.5418H32.0703L31.9549 25.9162H32.416V27.0105H31.4206C29.6913 27.0105 29.4649 27.0105 28.8308 26.7514C28.2257 26.4922 27.7646 25.8586 27.5339 25.0524H26.9575V25.9162H27.3899V27.0105ZM32.4458 24.4475H33.3393L32.8782 23.2379L32.4458 24.4475ZM27.403 32.908H24.9115V31.7992H25.5006V28.9704H24.9115V27.9066H27.9758C29.3158 27.9066 29.9917 28.6377 29.9917 29.5671C29.9917 30.1101 29.6971 30.7129 29.0855 31.0525C29.1758 31.5955 29.6478 31.7996 30.2325 31.7996H31.1685V28.9704H30.3755V27.9066H33.3879V28.9704H32.5949V31.7992H33.3879V32.908H30.1701C28.7115 32.908 28.0204 32.3422 27.6812 31.2783H26.9724V31.7989H27.4026L27.403 32.908ZM26.9724 30.1924H27.6475C28.0995 30.1924 28.4717 30.0329 28.4717 29.5812C28.4717 29.1028 28.0995 28.9701 27.6475 28.9701H26.9724V30.1924ZM24.4958 31.2472H23.3719V31.8231H21.9887V30.9304H23.2856V29.836H21.9887V29.0009H23.3719V29.5769H24.4958V27.9066H20V29.0009H20.5474V31.8228H20V32.9171H24.4958V31.2472ZM35.1585 22V23.6413H36.2247V23.0943H36.8298V25.9162H36.311V27.0105H38.8471V25.9162H38.2997V23.0943H38.9048V23.6413H40V22H35.1585ZM37.3714 28.9704H37.9812V30.7781L35.9635 27.9066H33.8101V28.9701H34.4007V31.7989H33.8101V32.9077H36.4148V31.7989H35.8278V30.059L37.8002 32.9077H39.4083V28.9704H39.9539V27.9069H37.3718L37.3714 28.9704ZM24.6202 37.2984C24.6202 38.0451 24.0746 38.7921 23.0142 38.7921H20V37.7058H20.5209V34.877H20V33.7682H22.6602C23.6864 33.7682 24.1899 34.4243 24.1899 35.126C24.1899 35.4429 24.0768 35.7597 23.8047 36.054C24.3938 36.3255 24.6202 36.8007 24.6202 37.2984ZM21.993 35.7368H22.3783C22.6954 35.7368 22.8539 35.5331 22.8539 35.3069C22.8539 35.0807 22.6954 34.877 22.3783 34.877H21.993V35.7368ZM23.1934 37.2306C23.1934 36.9816 22.9896 36.7325 22.6725 36.7325H21.993V37.7058H22.65C22.9896 37.7058 23.1934 37.4568 23.1934 37.2306ZM37.5132 35.8833H39.9307V37.7555C39.5908 38.3891 38.821 38.8828 37.666 38.8828C36.9865 38.8828 36.4431 38.7015 36.1489 38.4757C35.0577 39.1387 33.1535 39.0009 32.4795 37.1628H31.8312V37.7058H32.276V38.7921H29.7845V37.7058H30.4045V34.877H29.5124V36.7554C29.5124 38.1582 28.5159 38.9277 27.2248 38.9277C26.0927 38.9277 24.9376 38.2492 24.9376 36.7554V34.877H24.462V33.7682H26.9988V34.877H26.4551V36.8235C26.4551 37.389 26.8857 37.7058 27.293 37.7058C27.7008 37.7058 28.0857 37.4118 28.0857 36.8235V34.877H27.4287V33.7682H32.7737C34.1138 33.7682 34.7896 34.499 34.7896 35.4287C34.7896 35.9742 34.4925 36.5799 33.8751 36.9185C34.1319 37.671 34.9126 37.8193 35.2877 37.4571C35.1067 37.095 35.0385 36.6876 35.0385 36.2802C35.0385 34.9376 35.8735 33.6779 37.5974 33.6779C38.5932 33.6779 39.1936 33.9614 39.6721 34.3609V35.5346H38.4038L38.3984 35.0111C38.2029 34.8901 37.9747 34.8343 37.6881 34.8343C36.9375 34.8343 36.4873 35.3678 36.4873 36.2581C36.4873 37.0726 36.9633 37.6793 37.6881 37.7018C38.0734 37.7018 38.3697 37.6195 38.6618 37.3669V36.9475H37.5125L37.5132 35.8833ZM33.3131 35.4882C33.3131 35.0097 32.9409 34.877 32.4889 34.877H31.8309V36.0993H32.4889C32.9409 36.0993 33.3131 35.9394 33.3131 35.4882Z" fill="white"/>
<rect x="7.65137" y="9.75732" width="12" height="12" transform="rotate(-15 7.65137 9.75732)" fill="#00B400"/>
<path d="M47 34.9967L47 26.0425C54.1925 26.0425 60.0445 20.1914 60.0445 13L69 13C69 25.1287 59.1305 34.9967 47 34.9967Z" fill="#FFC800"/>
<path d="M13.4737 50.8547L6.37543 49.9368L3.62117 56.5431L-3.47713 55.6252L-6.23263 62.2322L-13.3309 61.3143L-16.0864 67.9213L-23.1847 67.0034L-25.9402 73.6103L-33.0385 72.6925L-35.794 79.2994L-42.8935 78.3823L-45.1137 83.7072L-48.406 82.4205L-45.1171 74.531L-38.0176 75.4481L-35.2621 68.8412L-28.1638 69.759L-25.4083 63.1521L-18.31 64.0699L-15.5545 57.463L-8.45618 58.3809L-5.70068 51.7739L1.39761 52.6918L4.15188 46.0855L11.2514 47.0027L14.0057 40.3964L22.4826 41.4929L21.9508 44.9874L16.2292 44.2477L13.4737 50.8547Z" fill="#00B4FA"/>
<rect x="34" y="55.0706" width="8" height="8" transform="rotate(-15 34 55.0706)" fill="#FFC800"/>
<rect x="36" y="-0.929443" width="8" height="8" transform="rotate(-15 36 -0.929443)" fill="#00B4FF"/>
</g>
<defs>
<clipPath id="clip0_5630_11679">
<rect width="60" height="60" rx="30" fill="white"/>
</clipPath>
</defs>
</svg>
