<svg fill="none" height="32" viewBox="0 0 32 32" width="32" xmlns="http://www.w3.org/2000/svg"><rect fill="#000" height="32" rx="16" width="32"/><g stroke="#000"><path d="m10.2463 10.6275-3.85001-.70908c-.00772-.00142-.01542-.00284-.0231-.00425-.26476-.04878-.49941-.09201-.69414-.10787-.20645-.01682-.4313-.00978-.65192.09177-.2002.09215-.37247.23563-.49936.41583-.13983.1985-.18747.4184-.20833.6245-.01967.1944-.01965.433-.01964.7022v.0235 8.6708.0235c-.00001.2692-.00003.5078.01964.7022.02086.2061.0685.4259.20833.6245.12689.1802.29916.3236.49936.4158.22062.1015.44547.1086.65192.0918.19473-.0159.42937-.0591.69413-.1079l.02311-.0043 3.85001-.709.0184-.0034c.1885-.0347.3602-.0663.5018-.1054.1538-.0424.312-.1035.4577-.2185.1368-.1079.2495-.2433.3308-.3973.0868-.1641.1182-.3308.1321-.4897.0127-.1464.0127-.321.0127-.5126v-.0187-7.2528-.0187c0-.1916 0-.3662-.0127-.5126-.0139-.159-.0453-.3256-.1321-.4897-.0813-.1541-.194-.2894-.3308-.3973-.1457-.115-.3039-.1761-.4577-.2186-.1416-.039-.3133-.0707-.5018-.1053z" fill="#00b400"/><path d="m13.2359 8.79939-3-.75341-.025-.00628c-.37527-.09425-.69367-.17422-.95563-.21208-.27295-.03946-.55259-.04495-.82534.06712-.25365.10422-.47388.27598-.63674.4966-.17513.23724-.23792.50979-.26613.78414-.02708.26329-.02707.59158-.02706.97852v.0257 11.6406.0257c-.00001.3869-.00002.7152.02706.9785.02821.2744.091.5469.26613.7842.16286.2206.38309.3923.63674.4966.27275.112.55239.1065.82534.0671.26197-.0379.58037-.1179.95563-.2121l.025-.0063 3-.7534.0186-.0047c.2369-.0594.444-.1114.6129-.1693.1806-.0619.354-.1419.51-.276.1513-.1299.2751-.2886.3642-.4669.092-.184.1274-.3717.1434-.562.015-.1779.015-.3914.015-.6357v-.0191-10.1338-.0191c0-.2443 0-.4578-.015-.6357-.016-.1903-.0514-.37795-.1434-.56195-.0891-.17832-.2129-.33708-.3642-.46699-.156-.13405-.3294-.21407-.51-.27596-.1689-.05786-.376-.10985-.613-.16934z" fill="#00b4ff"/><path d="m18.9816 7.60763-3.75-1.26667-.0262-.00885c-.4987-.16848-.9101-.30745-1.247-.38336-.3466-.07809-.6883-.10828-1.0222.00908-.3152.11082-.5921.30958-.798.57278-.218.27873-.2988.61211-.3357.96546-.0359.34352-.0359.77775-.0359 1.3042v.02765 14.34518.0277c0 .5264 0 .9606.0359 1.3042.0369.3533.1177.6867.3357.9654.2059.2632.4828.462.798.5728.3339.1174.6756.0872 1.0222.0091.3369-.0759.7483-.2149 1.2471-.3834l.0261-.0088 3.75-1.2667.0179-.006c.2705-.0914.5009-.1692.6874-.2493.1975-.0849.378-.1852.5372-.337.1582-.1508.2867-.3298.379-.5279.0928-.1995.1301-.4026.1473-.6169.0162-.2022.0162-.4455.0162-.731v-.0188-11.8119-.0189c0-.2855 0-.52872-.0162-.731-.0172-.2143-.0545-.41736-.1473-.61682-.0923-.19809-.2208-.37716-.379-.52795-.1592-.15181-.3397-.25213-.5372-.33698-.1864-.0801-.4169-.15792-.6874-.24928z" fill="#ffd400"/><path d="m25.5175 6.98951-3.4334-1.77522-.0264-.01369c-.6547-.33849-1.1819-.61111-1.6135-.77917-.4373-.17024-.8616-.26925-1.2855-.16569-.4011.09797-.762.31766-1.0332.62891-.2867.32898-.3937.7514-.4433 1.218-.0489.46059-.0489 1.05413-.0489 1.79111v.0298 16.15494.0298c0 .737 0 1.3305.0489 1.7911.0496.4666.1566.8891.4433 1.218.2712.3113.6321.531 1.0332.6289.4239.1036.8482.0046 1.2855-.1657.4316-.168.9589-.4406 1.6135-.7791l.0264-.0137 3.4334-1.7752c.0263-.0136.0522-.027.0778-.0402.4744-.2448.8328-.4298 1.087-.725.143-.1661.2577-.3546.3396-.558.1455-.3614.1452-.7646.1448-1.2985 0-.0288-.0001-.058-.0001-.0876v-12.60452c0-.02959.0001-.05879.0001-.0876.0004-.53385.0007-.93713-.1448-1.29851-.0819-.20335-.1966-.39185-.3396-.55797-.2542-.29522-.6126-.48017-1.087-.72499-.0256-.01322-.0515-.02661-.0778-.0402z" fill="#00b400"/></g></svg>