<svg width="48" height="48" viewBox="0 0 48 48" fill="none" xmlns="http://www.w3.org/2000/svg">
<path fill-rule="evenodd" clip-rule="evenodd" d="M27.8735 29.7592C26.0673 31.1632 23.7976 31.9993 21.3327 31.9993C15.4416 31.9993 10.666 27.2237 10.666 21.3327C10.666 15.4416 15.4416 10.666 21.3327 10.666C27.2237 10.666 31.9993 15.4416 31.9993 21.3327C31.9993 23.7976 31.1632 26.0673 29.7592 27.8735L36.9422 35.0565C37.4629 35.5772 37.4629 36.4215 36.9422 36.9422C36.4215 37.4629 35.5772 37.4629 35.0565 36.9422L27.8735 29.7592ZM29.3327 21.3327C29.3327 25.751 25.751 29.3327 21.3327 29.3327C16.9144 29.3327 13.3327 25.751 13.3327 21.3327C13.3327 16.9144 16.9144 13.3327 21.3327 13.3327C25.751 13.3327 29.3327 16.9144 29.3327 21.3327Z" fill="black"/>
</svg>
