<svg width="48" height="48" viewBox="0 0 48 48" fill="none" xmlns="http://www.w3.org/2000/svg">
<circle cx="24.167" cy="24.167" r="13.4586" transform="rotate(-90 24.167 24.167)" stroke="black" stroke-width="1.4167"/>
<path d="M24.168 11.418V36.9186" stroke="black" stroke-width="1.4167" stroke-linecap="round"/>
<g clip-path="url(#clip0_4083_4052)">
<mask id="path-4-inside-1_4083_4052" fill="white">
<path d="M23.2229 30.3063C23.2229 30.0455 23.4343 29.8341 23.6951 29.8341H24.6396C24.9004 29.8341 25.1118 30.0455 25.1118 30.3063V33.1397C25.1118 33.4006 24.9004 33.612 24.6396 33.612H23.6951C23.4343 33.612 23.2229 33.4006 23.2229 33.1397V30.3063Z"/>
<path d="M23.2229 15.1949C23.2229 14.9341 23.4343 14.7227 23.6951 14.7227H24.6396C24.9004 14.7227 25.1118 14.9341 25.1118 15.1949V18.0283C25.1118 18.2891 24.9004 18.5005 24.6396 18.5005H23.6951C23.4343 18.5005 23.2229 18.2891 23.2229 18.0283V15.1949Z"/>
<path d="M18.0283 23.2229C18.2891 23.2229 18.5005 23.4343 18.5005 23.6951V24.6396C18.5005 24.9004 18.2891 25.1118 18.0283 25.1118H15.1949C14.9341 25.1118 14.7227 24.9004 14.7227 24.6396L14.7227 23.6951C14.7227 23.4343 14.9341 23.2229 15.1949 23.2229H18.0283Z"/>
<path d="M33.1397 23.2229C33.4006 23.2229 33.612 23.4343 33.612 23.6951V24.6396C33.612 24.9004 33.4006 25.1118 33.1397 25.1118H30.3063C30.0455 25.1118 29.8341 24.9004 29.8341 24.6396V23.6951C29.8341 23.4343 30.0455 23.2229 30.3063 23.2229H33.1397Z"/>
<path d="M31.177 29.8415C31.3614 30.0259 31.3614 30.3249 31.177 30.5093L30.5092 31.1771C30.3247 31.3616 30.0257 31.3616 29.8413 31.1771L27.8402 29.1761C27.6558 28.9916 27.6558 28.6926 27.8402 28.5082L28.5081 27.8404C28.6925 27.656 28.9915 27.656 29.1759 27.8404L31.177 29.8415Z"/>
<path d="M20.5019 19.1683C20.6864 19.3527 20.6864 19.6517 20.5019 19.8361L19.8341 20.5039C19.6497 20.6883 19.3507 20.6883 19.1663 20.5039L17.1628 18.5004C16.9783 18.316 16.9783 18.017 17.1628 17.8326L17.8306 17.1647C18.015 16.9803 18.314 16.9803 18.4984 17.1647L20.5019 19.1683Z"/>
<path d="M27.8087 19.1895C27.6243 19.3739 27.6243 19.6729 27.8087 19.8573L28.4766 20.5251C28.661 20.7096 28.96 20.7096 29.1444 20.5251L31.1479 18.5216C31.3323 18.3372 31.3323 18.0382 31.1479 17.8538L30.4801 17.186C30.2956 17.0015 29.9966 17.0015 29.8122 17.186L27.8087 19.1895Z"/>
<path d="M17.154 29.8442C16.9695 30.0286 16.9695 30.3276 17.154 30.5121L17.8218 31.1799C18.0062 31.3643 18.3052 31.3643 18.4896 31.1799L20.4929 29.1766C20.6773 28.9922 20.6773 28.6932 20.4929 28.5088L19.8251 27.8409C19.6407 27.6565 19.3417 27.6565 19.1572 27.8409L17.154 29.8442Z"/>
<path d="M28.8896 24.1673C28.8896 26.7754 26.7754 28.8896 24.1673 28.8896C21.5592 28.8896 19.445 26.7754 19.445 24.1673C19.445 21.5592 21.5592 19.445 24.1673 19.445C26.7754 19.445 28.8896 21.5592 28.8896 24.1673Z"/>
</mask>
<path d="M14.7227 23.6951H13.306H14.7227ZM15.1949 23.2229L15.1949 24.6396H15.1949V23.2229ZM15.1949 25.1118L15.1949 26.5285H15.1949V25.1118ZM14.7227 24.6396H16.1394H14.7227ZM18.5005 24.6396H19.9172H18.5005ZM18.0283 25.1118V23.6951V25.1118ZM18.5005 23.6951H17.0838H18.5005ZM18.0283 23.2229V21.8062V23.2229ZM29.8341 23.6951H28.4174H29.8341ZM30.3063 23.2229V24.6396V23.2229ZM30.3063 25.1118V26.5285V25.1118ZM29.8341 24.6396H31.2508H29.8341ZM33.612 24.6396H35.0287H33.612ZM33.1397 25.1118V23.6951V25.1118ZM33.612 23.6951H32.1953H33.612ZM33.1397 23.2229V21.8062V23.2229ZM27.8402 29.1761L26.8385 30.1778H26.8385L27.8402 29.1761ZM29.8413 31.1771L30.8431 30.1754L30.8431 30.1754L29.8413 31.1771ZM18.4984 17.1647L19.5002 16.163V16.163L18.4984 17.1647ZM17.1628 18.5004L18.1645 17.4987H18.1645L17.1628 18.5004ZM19.8341 20.5039L20.8359 21.5057L20.8359 21.5057L19.8341 20.5039ZM19.1663 20.5039L18.1645 21.5057L19.1663 20.5039ZM20.5019 19.8361L19.5002 18.8343H19.5002L20.5019 19.8361ZM20.5019 19.1683L19.5002 20.17L20.5019 19.1683ZM30.4801 17.186L29.4783 18.1877L29.4783 18.1877L30.4801 17.186ZM29.8122 17.186L28.8105 16.1842V16.1842L29.8122 17.186ZM31.1479 17.8538L32.1497 16.852V16.852L31.1479 17.8538ZM28.4766 20.5251L27.4748 21.5269L27.4748 21.5269L28.4766 20.5251ZM27.8087 19.8573L28.8105 18.8555V18.8555L27.8087 19.8573ZM27.8087 19.1895L28.8105 20.1912L27.8087 19.1895ZM19.8251 27.8409L18.8233 28.8427L18.8233 28.8427L19.8251 27.8409ZM20.4929 29.1766L21.4947 30.1784L20.4929 29.1766ZM20.4929 28.5088L21.4947 27.507L20.4929 28.5088ZM17.8218 31.1799L18.8236 30.1781L18.8236 30.1781L17.8218 31.1799ZM18.4896 31.1799L17.4879 30.1781H17.4879L18.4896 31.1799ZM17.154 30.5121L16.1522 31.5138H16.1522L17.154 30.5121ZM23.6951 31.2508H24.6396V28.4174H23.6951V31.2508ZM23.6951 30.3063V33.1397H26.5285V30.3063H23.6951ZM24.6396 32.1953H23.6951V35.0287H24.6396V32.1953ZM24.6396 33.1397V30.3063H21.8062V33.1397H24.6396ZM23.6951 32.1953C24.2167 32.1953 24.6396 32.6181 24.6396 33.1397H21.8062C21.8062 34.183 22.6519 35.0287 23.6951 35.0287V32.1953ZM23.6951 33.1397C23.6951 32.6181 24.1179 32.1953 24.6396 32.1953V35.0287C25.6828 35.0287 26.5285 34.183 26.5285 33.1397H23.6951ZM24.6396 31.2508C24.1179 31.2508 23.6951 30.828 23.6951 30.3063H26.5285C26.5285 29.2631 25.6828 28.4174 24.6396 28.4174V31.2508ZM23.6951 28.4174C22.6519 28.4174 21.8062 29.2631 21.8062 30.3063H24.6396C24.6396 30.828 24.2167 31.2508 23.6951 31.2508V28.4174ZM23.6951 16.1394H24.6396V13.306H23.6951V16.1394ZM23.6951 15.1949V18.0283H26.5285V15.1949H23.6951ZM24.6396 17.0838H23.6951V19.9172H24.6396V17.0838ZM24.6396 18.0283V15.1949H21.8062V18.0283H24.6396ZM23.6951 17.0838C24.2167 17.0838 24.6396 17.5067 24.6396 18.0283H21.8062C21.8062 19.0715 22.6519 19.9172 23.6951 19.9172V17.0838ZM23.6951 18.0283C23.6951 17.5067 24.1179 17.0838 24.6396 17.0838V19.9172C25.6828 19.9172 26.5285 19.0715 26.5285 18.0283H23.6951ZM24.6396 16.1394C24.1179 16.1394 23.6951 15.7165 23.6951 15.1949H26.5285C26.5285 14.1517 25.6828 13.306 24.6396 13.306V16.1394ZM23.6951 13.306C22.6519 13.306 21.8062 14.1517 21.8062 15.1949H24.6396C24.6396 15.7165 24.2167 16.1394 23.6951 16.1394V13.306ZM17.0838 23.6951V24.6396H19.9172V23.6951H17.0838ZM18.0283 23.6951H15.1949V26.5285H18.0283V23.6951ZM16.1394 24.6396V23.6951H13.306V24.6396L16.1394 24.6396ZM15.1949 24.6396H18.0283V21.8062H15.1949V24.6396ZM16.1394 23.6951C16.1394 24.2167 15.7165 24.6396 15.1949 24.6396L15.1949 21.8062C14.1517 21.8062 13.306 22.6519 13.306 23.6951H16.1394ZM15.1949 23.6951C15.7165 23.6951 16.1394 24.1179 16.1394 24.6396L13.306 24.6396C13.306 25.6828 14.1517 26.5285 15.1949 26.5285L15.1949 23.6951ZM17.0838 24.6396C17.0838 24.1179 17.5067 23.6951 18.0283 23.6951L18.0283 26.5285C19.0715 26.5285 19.9172 25.6828 19.9172 24.6396L17.0838 24.6396ZM19.9172 23.6951C19.9172 22.6519 19.0715 21.8062 18.0283 21.8062L18.0283 24.6396C17.5067 24.6396 17.0838 24.2167 17.0838 23.6951H19.9172ZM32.1953 23.6951V24.6396H35.0287V23.6951H32.1953ZM33.1397 23.6951H30.3063V26.5285H33.1397V23.6951ZM31.2508 24.6396V23.6951H28.4174V24.6396H31.2508ZM30.3063 24.6396H33.1397V21.8062H30.3063V24.6396ZM31.2508 23.6951C31.2508 24.2167 30.828 24.6396 30.3063 24.6396V21.8062C29.2631 21.8062 28.4174 22.6519 28.4174 23.6951H31.2508ZM30.3063 23.6951C30.828 23.6951 31.2508 24.1179 31.2508 24.6396L28.4174 24.6396C28.4174 25.6828 29.2631 26.5285 30.3063 26.5285V23.6951ZM32.1953 24.6396C32.1953 24.1179 32.6181 23.6951 33.1397 23.6951V26.5285C34.183 26.5285 35.0287 25.6828 35.0287 24.6396L32.1953 24.6396ZM35.0287 23.6951C35.0287 22.6519 34.183 21.8062 33.1397 21.8062V24.6396C32.6181 24.6396 32.1953 24.2167 32.1953 23.6951H35.0287ZM30.1752 29.5075L29.5074 30.1754L31.5109 32.1789L32.1788 31.5111L30.1752 29.5075ZM30.8431 30.1754L28.842 28.1743L26.8385 30.1778L28.8396 32.1789L30.8431 30.1754ZM28.842 29.51L29.5098 28.8421L27.5063 26.8386L26.8385 27.5065L28.842 29.51ZM28.1742 28.8421L30.1752 30.8432L32.1788 28.8397L30.1777 26.8386L28.1742 28.8421ZM29.5098 28.8421C29.141 29.211 28.543 29.211 28.1742 28.8421L30.1777 26.8386C29.44 26.1009 28.244 26.1009 27.5063 26.8386L29.5098 28.8421ZM28.842 28.1743C29.2108 28.5431 29.2108 29.1411 28.842 29.51L26.8385 27.5065C26.1008 28.2441 26.1008 29.4401 26.8385 30.1778L28.842 28.1743ZM29.5074 30.1754C29.8762 29.8065 30.4742 29.8065 30.8431 30.1754L28.8396 32.1789C29.5772 32.9166 30.7732 32.9166 31.5109 32.1789L29.5074 30.1754ZM32.1788 31.5111C32.9164 30.7734 32.9164 29.5774 32.1788 28.8397L30.1752 30.8432C29.8064 30.4744 29.8064 29.8764 30.1752 29.5075L32.1788 31.5111ZM19.5002 18.8343L18.8323 19.5022L20.8359 21.5057L21.5037 20.8378L19.5002 18.8343ZM20.168 19.5022L18.1645 17.4987L16.161 19.5022L18.1645 21.5057L20.168 19.5022ZM18.1645 18.8343L18.8323 18.1665L16.8288 16.163L16.161 16.8308L18.1645 18.8343ZM17.4967 18.1665L19.5002 20.17L21.5037 18.1665L19.5002 16.163L17.4967 18.1665ZM18.8323 18.1665C18.4635 18.5353 17.8655 18.5353 17.4967 18.1665L19.5002 16.163C18.7625 15.4253 17.5665 15.4253 16.8288 16.163L18.8323 18.1665ZM18.1645 17.4987C18.5333 17.8675 18.5333 18.4655 18.1645 18.8343L16.161 16.8308C15.4233 17.5685 15.4233 18.7645 16.161 19.5022L18.1645 17.4987ZM18.8323 19.5022C19.2012 19.1333 19.7992 19.1333 20.168 19.5022L18.1645 21.5057C18.9022 22.2434 20.0982 22.2434 20.8359 21.5057L18.8323 19.5022ZM21.5037 20.8378C22.2414 20.1002 22.2414 18.9042 21.5037 18.1665L19.5002 20.17C19.1313 19.8012 19.1313 19.2032 19.5002 18.8343L21.5037 20.8378ZM26.807 20.8591L27.4748 21.5269L29.4783 19.5234L28.8105 18.8555L26.807 20.8591ZM30.1461 21.5269L32.1497 19.5234L30.1461 17.5199L28.1426 19.5234L30.1461 21.5269ZM32.1497 16.852L31.4818 16.1842L29.4783 18.1877L30.1461 18.8555L32.1497 16.852ZM28.8105 16.1842L26.807 18.1877L28.8105 20.1912L30.814 18.1877L28.8105 16.1842ZM31.4818 16.1842C30.7442 15.4465 29.5481 15.4465 28.8105 16.1842L30.814 18.1877C30.4452 18.5565 29.8471 18.5565 29.4783 18.1877L31.4818 16.1842ZM32.1497 19.5234C32.8873 18.7857 32.8873 17.5897 32.1497 16.852L30.1461 18.8555C29.7773 18.4867 29.7773 17.8887 30.1461 17.5199L32.1497 19.5234ZM27.4748 21.5269C28.2125 22.2646 29.4085 22.2646 30.1461 21.5269L28.1426 19.5234C28.5115 19.1545 29.1095 19.1545 29.4783 19.5234L27.4748 21.5269ZM28.8105 18.8555C29.1793 19.2244 29.1793 19.8224 28.8105 20.1912L26.807 18.1877C26.0693 18.9254 26.0693 20.1214 26.807 20.8591L28.8105 18.8555ZM16.1522 31.5138L16.82 32.1817L18.8236 30.1781L18.1557 29.5103L16.1522 31.5138ZM19.4914 32.1817L21.4947 30.1784L19.4912 28.1749L17.4879 30.1781L19.4914 32.1817ZM21.4947 27.507L20.8268 26.8392L18.8233 28.8427L19.4912 29.5105L21.4947 27.507ZM18.1555 26.8392L16.1522 28.8425L18.1557 30.846L20.159 28.8427L18.1555 26.8392ZM20.8268 26.8392C20.0892 26.1015 18.8932 26.1015 18.1555 26.8392L20.159 28.8427C19.7902 29.2115 19.1922 29.2115 18.8233 28.8427L20.8268 26.8392ZM21.4947 30.1784C22.2323 29.4407 22.2324 28.2447 21.4947 27.507L19.4912 29.5105C19.1223 29.1417 19.1223 28.5437 19.4912 28.1749L21.4947 30.1784ZM16.82 32.1817C17.5577 32.9193 18.7537 32.9193 19.4914 32.1817L17.4879 30.1781C17.8567 29.8093 18.4547 29.8093 18.8236 30.1781L16.82 32.1817ZM18.1557 29.5103C18.5246 29.8791 18.5245 30.4771 18.1557 30.846L16.1522 28.8425C15.4145 29.5801 15.4145 30.7761 16.1522 31.5138L18.1557 29.5103ZM27.4729 24.1673C27.4729 25.993 25.993 27.4729 24.1673 27.4729V30.3063C27.5578 30.3063 30.3063 27.5578 30.3063 24.1673H27.4729ZM24.1673 27.4729C22.3417 27.4729 20.8617 25.993 20.8617 24.1673H18.0283C18.0283 27.5578 20.7768 30.3063 24.1673 30.3063V27.4729ZM20.8617 24.1673C20.8617 22.3417 22.3417 20.8617 24.1673 20.8617V18.0283C20.7768 18.0283 18.0283 20.7768 18.0283 24.1673H20.8617ZM24.1673 20.8617C25.993 20.8617 27.4729 22.3417 27.4729 24.1673H30.3063C30.3063 20.7768 27.5578 18.0283 24.1673 18.0283V20.8617Z" fill="black" mask="url(#path-4-inside-1_4083_4052)"/>
</g>
<g clip-path="url(#clip1_4083_4052)">
<path fill-rule="evenodd" clip-rule="evenodd" d="M17.5901 24.6881C18.7285 26.6841 20.8765 28.0298 23.3388 28.0298C26.9912 28.0298 29.9521 25.0689 29.9521 21.4165C29.9521 18.9543 28.6065 16.8064 26.6105 15.668C30.8049 16.0662 34.0859 19.5985 34.0859 23.8972C34.0859 28.4627 30.3849 32.1638 25.8193 32.1638C21.5206 32.1638 17.9882 28.8826 17.5901 24.6881Z" fill="black"/>
</g>
<defs>
<clipPath id="clip0_4083_4052">
<rect width="11.3336" height="22.6672" fill="white" transform="translate(12.834 12.834)"/>
</clipPath>
<clipPath id="clip1_4083_4052">
<rect width="12.7503" height="22.6672" rx="6.37515" transform="matrix(-1 0 0 1 36.918 12.834)" fill="white"/>
</clipPath>
</defs>
</svg>
