<svg width="60" height="60" viewBox="0 0 60 60" fill="none" xmlns="http://www.w3.org/2000/svg">
<rect width="60" height="60" rx="30" fill="black"/>
<path d="M34.0647 46.4767V11.9752L45.6776 21.9291V36.5228L34.0647 46.4767ZM24.3873 43.3671V15.0847L28.2583 16.3751V42.0768L24.3873 43.3671ZM28.6553 16.5074C28.6551 16.5073 28.6548 16.5072 28.6546 16.5072L28.6553 16.5074ZM28.6553 41.9445L28.6537 41.945C28.6542 41.9448 28.6548 41.9446 28.6553 41.9445L28.8389 42.4953L28.6553 41.9445ZM23.623 43.6219C23.6234 43.6218 23.6238 43.6216 23.6242 43.6215L23.623 43.6219ZM17.6131 40.4639V17.988L18.5808 18.3105V40.1413L17.6131 40.4639Z" fill="white" stroke="white" stroke-width="1.93548"/>
</svg>
