<svg width="40" height="42" viewBox="0 0 40 42" fill="none" xmlns="http://www.w3.org/2000/svg">
<path fill-rule="evenodd" clip-rule="evenodd" d="M24.0372 3C24.7002 3 25.3361 3.26339 25.8049 3.73223L33.2678 11.1951C33.7366 11.6639 34 12.2998 34 12.9628V35.5C34 36.8807 32.8807 38 31.5 38H9.5C8.11929 38 7 36.8807 7 35.5V5.5C7 4.11929 8.11929 3 9.5 3H24.0372ZM16.7124 20.735C16.7124 22.4225 15.5874 23.345 14.0912 23.345H13.0674V26H11.4024V18.125H14.0912C15.5874 18.125 16.7124 19.0475 16.7124 20.735ZM13.0674 19.655V21.815H14.0124C14.5637 21.815 14.9912 21.41 14.9912 20.735C14.9912 20.06 14.5637 19.655 14.0124 19.655H13.0674ZM23.9565 22.0625C23.9565 24.3575 22.854 26 20.6265 26H18.0052V18.125H20.6265C22.854 18.125 23.9565 19.7675 23.9565 22.0625ZM19.5577 19.655V24.47H20.6265C21.6615 24.47 22.2465 23.4125 22.2465 22.0625C22.2465 20.7125 21.6615 19.655 20.6265 19.655H19.5577ZM29.9322 21.3988V22.9287H27.086V26H25.421V18.125H30.1572L29.9322 19.655H27.086V21.3988H29.9322Z" fill="black"/>
</svg>
