<svg width="42" height="42" viewBox="0 0 70 70" fill="none" xmlns="http://www.w3.org/2000/svg">
<g clip-path="url(#clip0_2479_52)">
<path fill-rule="evenodd" clip-rule="evenodd" d="M34.433 12.4609C22.0281 12.4609 12 22.563 12 35.0606C12 45.0506 18.4254 53.5069 27.339 56.4999C28.4535 56.7249 28.8617 56.0136 28.8617 55.4153C28.8617 54.8913 28.825 53.0955 28.825 51.2243C22.5846 52.5716 21.2852 48.5303 21.2852 48.5303C20.2823 45.9111 18.7964 45.2379 18.7964 45.2379C16.7539 43.8535 18.9452 43.8535 18.9452 43.8535C21.2108 44.0032 22.3996 46.1733 22.3996 46.1733C24.4048 49.6153 27.6361 48.6428 28.9361 48.044C29.1216 46.5847 29.7162 45.5745 30.3476 45.0134C25.3705 44.4895 20.134 42.5439 20.134 33.863C20.134 31.3935 21.0248 29.3731 22.4363 27.8018C22.2136 27.2407 21.4335 24.9204 22.6595 21.815C22.6595 21.815 24.5536 21.2162 28.8245 24.1348C30.653 23.6401 32.5387 23.3884 34.433 23.3863C36.3271 23.3863 38.258 23.6485 40.041 24.1348C44.3123 21.2162 46.2064 21.815 46.2064 21.815C47.4325 24.9204 46.6518 27.2407 46.4291 27.8018C47.8779 29.3731 48.7319 31.3935 48.7319 33.863C48.7319 42.5439 43.4954 44.4518 38.4811 45.0134C39.2985 45.7242 40.0038 47.071 40.0038 49.2039C40.0038 52.2345 39.967 54.6668 39.967 55.4148C39.967 56.0136 40.3757 56.7249 41.4897 56.5003C50.4034 53.5064 56.8287 45.0506 56.8287 35.0606C56.8655 22.563 46.8006 12.4609 34.433 12.4609Z" fill="#24292F"/>
</g>
<defs>
<clipPath id="clip0_2479_52">
<rect width="45" height="45" fill="white" transform="translate(12 12)"/>
</clipPath>
</defs>
</svg>
