<svg width="36" height="36" viewBox="0 0 36 36" fill="none" xmlns="http://www.w3.org/2000/svg">
<g clip-path="url(#clip0_2482_62)">
<path fill-rule="evenodd" clip-rule="evenodd" d="M17.9464 0.367188C8.02249 0.367188 0 8.44882 0 18.4469C0 26.4389 5.14029 33.204 12.2712 35.5983C13.1628 35.7783 13.4893 35.2093 13.4893 34.7307C13.4893 34.3115 13.46 32.8748 13.46 31.3779C8.46771 32.4557 7.42812 29.2227 7.42812 29.2227C6.62584 27.1273 5.4371 26.5888 5.4371 26.5888C3.80314 25.4812 5.55612 25.4812 5.55612 25.4812C7.36861 25.601 8.31967 27.3371 8.31967 27.3371C9.92388 30.0907 12.5089 29.3127 13.5489 28.8336C13.6973 27.6662 14.173 26.858 14.6781 26.4091C10.6964 25.99 6.50718 24.4336 6.50718 17.4889C6.50718 15.5133 7.21984 13.8969 8.34906 12.6399C8.1709 12.191 7.54678 10.3348 8.52759 7.85041C8.52759 7.85041 10.0429 7.37139 13.4596 9.70625C14.9224 9.31049 16.431 9.10917 17.9464 9.10747C19.4617 9.10747 21.0064 9.31723 22.4328 9.70625C25.8498 7.37139 27.3651 7.85041 27.3651 7.85041C28.346 10.3348 27.7215 12.191 27.5433 12.6399C28.7023 13.8969 29.3856 15.5133 29.3856 17.4889C29.3856 24.4336 25.1963 25.9599 21.1849 26.4091C21.8388 26.9778 22.403 28.0552 22.403 29.7616C22.403 32.186 22.3736 34.1319 22.3736 34.7303C22.3736 35.2093 22.7006 35.7783 23.5918 35.5987C30.7227 33.2036 35.863 26.4389 35.863 18.4469C35.8924 8.44882 27.8405 0.367188 17.9464 0.367188Z" fill="#24292F"/>
</g>
<defs>
<clipPath id="clip0_2482_62">
<rect width="36" height="36" fill="white"/>
</clipPath>
</defs>
</svg>
