<svg xmlns="http://www.w3.org/2000/svg" viewBox="0 0 256.02 256.02"><defs><style>.a{fill:#46aa00;}.b{fill:#fff;}</style></defs><circle class="a" cx="128.01" cy="128.01" r="128.01"/><path class="b" d="M54.5,153.78c0-19.49,16-35,35.74-35h71.23c9,0,16.24-7.75,16.24-16.74S170.46,85.3,161.47,85.3H132.23V66.81h29.24c19.74,0,35.74,15.49,35.74,35.24s-16,35-35.74,35H90.24c-9,0-16.25,8-16.25,16.74,0,9,7.25,16.75,16.25,16.75h29V189h-29C70.49,189,54.5,173.53,54.5,153.78ZM93.24,50.06a25.87,25.87,0,1,1,0,51.74,25.87,25.87,0,0,1,0-51.74Zm0,37.24A11.25,11.25,0,1,0,82,76.06,11.19,11.19,0,0,0,93.24,87.3Zm65,118.22A25.87,25.87,0,1,1,184,179.77,25.92,25.92,0,0,1,158.22,205.52Zm0-37a11.25,11.25,0,1,0,11.24,11.24A11.2,11.2,0,0,0,158.22,168.53Z"/></svg>