<svg xmlns="http://www.w3.org/2000/svg" xmlns:xlink="http://www.w3.org/1999/xlink" viewBox="0 0 1920 1200"><defs><style>.a{fill:none;}.b{clip-path:url(#a);}.c{opacity:0.1;}.d{fill:#46aa00;}</style><clipPath id="a"><rect class="a" width="1920" height="1200"/></clipPath></defs><g class="b"><g class="c"><rect class="d" x="974.47" y="1396.63" width="1627.76" height="39.31" transform="translate(-477.67 1679.37) rotate(-45)"/><rect class="d" x="869.5" y="1396.63" width="1627.76" height="39.31" transform="translate(-508.41 1605.15) rotate(-45)"/><rect class="d" x="764.53" y="1396.63" width="1627.76" height="39.31" transform="translate(-539.16 1530.92) rotate(-45)"/><rect class="d" x="659.56" y="1396.63" width="1627.76" height="39.31" transform="translate(-569.9 1456.7) rotate(-45)"/><rect class="d" x="554.59" y="1396.63" width="1627.76" height="39.31" transform="translate(-600.65 1382.47) rotate(-45)"/><rect class="d" x="449.61" y="1396.63" width="1627.76" height="39.31" transform="translate(-631.4 1308.24) rotate(-45)"/><rect class="d" x="344.64" y="1396.63" width="1627.76" height="39.31" transform="translate(-662.14 1234.02) rotate(-45)"/><rect class="d" x="239.67" y="1396.63" width="1627.76" height="39.31" transform="translate(-692.89 1159.79) rotate(-45)"/><rect class="d" x="134.7" y="1396.63" width="1627.76" height="39.31" transform="translate(-723.63 1085.57) rotate(-45)"/><rect class="d" x="29.73" y="1396.63" width="1627.76" height="39.31" transform="translate(-754.38 1011.34) rotate(-45)"/><rect class="d" x="-75.24" y="1396.63" width="1627.76" height="39.31" transform="translate(-785.12 937.12) rotate(-45)"/><rect class="d" x="-180.21" y="1396.63" width="1627.76" height="39.31" transform="translate(-815.87 862.89) rotate(-45)"/><rect class="d" x="-285.18" y="1396.63" width="1627.76" height="39.31" transform="translate(-846.61 788.66) rotate(-45)"/><rect class="d" x="-390.16" y="1396.63" width="1627.76" height="39.31" transform="translate(-877.36 714.44) rotate(-45)"/><rect class="d" x="-495.13" y="1396.63" width="1627.76" height="39.31" transform="translate(-908.1 640.21) rotate(-45)"/><rect class="d" x="-600.1" y="1396.63" width="1627.76" height="39.31" transform="translate(-938.85 565.99) rotate(-45)"/><rect class="d" x="-705.07" y="1396.63" width="1627.76" height="39.31" transform="translate(-969.59 491.76) rotate(-45)"/><rect class="d" x="-810.04" y="1396.63" width="1627.76" height="39.31" transform="translate(-1000.34 417.53) rotate(-45)"/><rect class="d" x="-915.01" y="1396.63" width="1627.76" height="39.31" transform="translate(-1031.08 343.31) rotate(-45)"/><rect class="d" x="-1019.98" y="1396.63" width="1627.76" height="39.31" transform="translate(-1061.83 269.08) rotate(-45)"/><rect class="d" x="-1124.95" y="1396.63" width="1627.76" height="39.31" transform="translate(-1092.58 194.86) rotate(-45)"/><rect class="d" x="-1229.92" y="1396.63" width="1627.76" height="39.31" transform="translate(-1123.32 120.63) rotate(-45)"/><rect class="d" x="-1334.9" y="1396.63" width="1627.76" height="39.31" transform="translate(-1154.07 46.41) rotate(-45)"/></g></g></svg>